<svg width="430" height="300" viewBox="0 0 430 300" fill="none" xmlns="http://www.w3.org/2000/svg" role="img" aria-labelledby="title desc">
  <title id="title">Foram Discord operations pipeline card</title>
  <desc id="desc">A Foram operations pipeline card showing voice, chat, ticket, backup, and announcement DM workflows.</desc>
  <rect width="430" height="300" rx="18" fill="#0D1117"/>
  <rect x="18" y="18" width="394" height="264" rx="16" fill="#111827" stroke="#2A3344"/>
  <text x="34" y="54" fill="#F8FAFC" font-family="Inter, Segoe UI, Arial, sans-serif" font-size="22" font-weight="700">Foram</text>
  <text x="34" y="76" fill="#A855F7" font-family="Inter, Segoe UI, Arial, sans-serif" font-size="13" font-weight="600">Discord Community Operations Suite</text>
  <g font-family="ui-monospace, SFMono-Regular, Menlo, Consolas, monospace" font-size="11" font-weight="700">
    <rect x="34" y="108" width="64" height="42" rx="11" fill="#0B1220" stroke="#38BDF8"/>
    <text x="50" y="134" fill="#F8FAFC">Voice</text>
    <rect x="116" y="108" width="64" height="42" rx="11" fill="#0B1220" stroke="#22C55E"/>
    <text x="134" y="134" fill="#F8FAFC">Chat</text>
    <rect x="198" y="108" width="64" height="42" rx="11" fill="#0B1220" stroke="#FACC15"/>
    <text x="214" y="134" fill="#F8FAFC">Ticket</text>
    <rect x="280" y="108" width="64" height="42" rx="11" fill="#0B1220" stroke="#F97316"/>
    <text x="294" y="134" fill="#F8FAFC">Backup</text>
    <rect x="177" y="178" width="76" height="42" rx="11" fill="#0B1220" stroke="#A855F7"/>
    <text x="205" y="204" fill="#F8FAFC">DM</text>
    <path d="M98 129H116M180 129H198M262 129H280M312 150C304 185 270 198 253 198M66 150C84 188 138 198 177 198" stroke="#64748B" stroke-width="2" stroke-linecap="round"/>
  </g>
  <g font-family="Inter, Segoe UI, Arial, sans-serif" font-size="11" fill="#94A3B8">
    <text x="36" y="244">meeting audits / activity tracking / Newface lifecycle</text>
    <text x="36" y="262">sticky threads / auto-delete / reaction checks / SQLite</text>
  </g>
</svg>
