<svg width="894" height="340" viewBox="0 0 894 340" fill="none" xmlns="http://www.w3.org/2000/svg" role="img" aria-labelledby="title desc">
  <title id="title">Featured projects overview</title>
  <desc id="desc">A system map connecting QCut, Nexi Vend, and Foram through Ship, Automate, Secure, and Observe.</desc>
  <defs>
    <linearGradient id="line" x1="72" y1="170" x2="822" y2="170" gradientUnits="userSpaceOnUse">
      <stop stop-color="#F97316"/>
      <stop offset="0.5" stop-color="#A855F7"/>
      <stop offset="1" stop-color="#38BDF8"/>
    </linearGradient>
  </defs>
  <rect width="894" height="340" rx="24" fill="#0D1117"/>
  <rect x="34" y="28" width="826" height="284" rx="18" fill="#111827" stroke="#2A3344"/>
  <text x="66" y="70" fill="#F8FAFC" font-family="Inter, Segoe UI, Arial, sans-serif" font-size="27" font-weight="700">Featured Systems Map</text>
  <text x="66" y="98" fill="#94A3B8" font-family="Inter, Segoe UI, Arial, sans-serif" font-size="14">Real tools shaped around deployment, operations, security, and maintainability.</text>
  <path d="M126 176H768" stroke="url(#line)" stroke-width="3" stroke-linecap="round"/>
  <g font-family="ui-monospace, SFMono-Regular, Menlo, Consolas, monospace" font-size="13" font-weight="700">
    <rect x="112" y="154" width="82" height="44" rx="12" fill="#0B1220" stroke="#F97316"/>
    <text x="136" y="181" fill="#F97316">Ship</text>
    <rect x="288" y="154" width="112" height="44" rx="12" fill="#0B1220" stroke="#A855F7"/>
    <text x="308" y="181" fill="#A855F7">Automate</text>
    <rect x="492" y="154" width="100" height="44" rx="12" fill="#0B1220" stroke="#38BDF8"/>
    <text x="520" y="181" fill="#38BDF8">Secure</text>
    <rect x="686" y="154" width="104" height="44" rx="12" fill="#0B1220" stroke="#22C55E"/>
    <text x="710" y="181" fill="#22C55E">Observe</text>
  </g>
  <g>
    <rect x="64" y="224" width="238" height="58" rx="14" fill="#0B1220" stroke="#2A3344"/>
    <text x="82" y="250" fill="#F8FAFC" font-family="Inter, Segoe UI, Arial, sans-serif" font-size="18" font-weight="700">QCut</text>
    <text x="82" y="272" fill="#94A3B8" font-family="Inter, Segoe UI, Arial, sans-serif" font-size="13">SaaS / Link Analytics / QNote / Security</text>
    <rect x="328" y="224" width="238" height="58" rx="14" fill="#0B1220" stroke="#2A3344"/>
    <text x="346" y="250" fill="#F8FAFC" font-family="Inter, Segoe UI, Arial, sans-serif" font-size="18" font-weight="700">Nexi Vend</text>
    <text x="346" y="272" fill="#94A3B8" font-family="Inter, Segoe UI, Arial, sans-serif" font-size="13">Distributed Commerce Automation</text>
    <rect x="592" y="224" width="238" height="58" rx="14" fill="#0B1220" stroke="#2A3344"/>
    <text x="610" y="250" fill="#F8FAFC" font-family="Inter, Segoe UI, Arial, sans-serif" font-size="18" font-weight="700">Foram</text>
    <text x="610" y="272" fill="#94A3B8" font-family="Inter, Segoe UI, Arial, sans-serif" font-size="13">Discord Community Operations Suite</text>
  </g>
</svg>
