<svg width="894" height="360" viewBox="0 0 894 360" fill="none" xmlns="http://www.w3.org/2000/svg" role="img" aria-labelledby="title desc">
  <title id="title">Taeyoon Kim terminal hero fallback</title>
  <desc id="desc">A static neon terminal dashboard introducing Taeyoon Kim as a SaaS, infrastructure, and automation builder.</desc>
  <defs>
    <linearGradient id="heroBorder" x1="48" y1="32" x2="846" y2="328" gradientUnits="userSpaceOnUse">
      <stop stop-color="#F97316"/>
      <stop offset="0.52" stop-color="#A855F7"/>
      <stop offset="1" stop-color="#38BDF8"/>
    </linearGradient>
    <linearGradient id="heroPanel" x1="56" y1="42" x2="838" y2="318" gradientUnits="userSpaceOnUse">
      <stop stop-color="#111827"/>
      <stop offset="1" stop-color="#0D1117"/>
    </linearGradient>
  </defs>
  <rect width="894" height="360" rx="24" fill="#0D1117"/>
  <g opacity="0.3">
    <path d="M76 70H818M76 112H818M76 154H818M76 196H818M76 238H818M76 280H818" stroke="#2A3344"/>
    <path d="M110 54V306M174 54V306M238 54V306M302 54V306M366 54V306M430 54V306M494 54V306M558 54V306M622 54V306M686 54V306M750 54V306" stroke="#2A3344"/>
  </g>
  <rect x="42" y="28" width="810" height="304" rx="18" fill="url(#heroBorder)"/>
  <rect x="44" y="30" width="806" height="300" rx="16" fill="url(#heroPanel)"/>
  <rect x="66" y="56" width="762" height="248" rx="14" fill="#0B1220" stroke="#2A3344"/>
  <rect x="66" y="56" width="762" height="44" rx="14" fill="#111827"/>
  <path d="M66 86H828" stroke="#2A3344"/>
  <circle cx="94" cy="78" r="6" fill="#EF4444"/>
  <circle cx="116" cy="78" r="6" fill="#FACC15"/>
  <circle cx="138" cy="78" r="6" fill="#22C55E"/>
  <text x="176" y="83" fill="#94A3B8" font-family="ui-monospace, SFMono-Regular, Menlo, Consolas, monospace" font-size="13">profile.boot / taeyoon0526</text>
  <text x="92" y="130" fill="#38BDF8" font-family="ui-monospace, SFMono-Regular, Menlo, Consolas, monospace" font-size="15">$ whoami</text>
  <text x="92" y="170" fill="#F8FAFC" font-family="Inter, Segoe UI, Arial, sans-serif" font-size="44" font-weight="700" letter-spacing="0">Taeyoon Kim</text>
  <text x="94" y="204" fill="#F97316" font-family="Inter, Segoe UI, Arial, sans-serif" font-size="21" font-weight="600">Turning small ideas into production-grade systems</text>
  <text x="94" y="236" fill="#94A3B8" font-family="Inter, Segoe UI, Arial, sans-serif" font-size="16">SaaS / Infra / Automation Builder</text>
  <g font-family="ui-monospace, SFMono-Regular, Menlo, Consolas, monospace" font-size="14">
    <text x="94" y="272" fill="#A855F7">Prompt</text>
    <text x="162" y="272" fill="#64748B">-&gt;</text>
    <text x="190" y="272" fill="#38BDF8">Plan</text>
    <text x="238" y="272" fill="#64748B">-&gt;</text>
    <text x="266" y="272" fill="#22C55E">Patch</text>
    <text x="324" y="272" fill="#64748B">-&gt;</text>
    <text x="352" y="272" fill="#FACC15">Verify</text>
    <text x="420" y="272" fill="#64748B">-&gt;</text>
    <text x="448" y="272" fill="#F97316">Deploy</text>
    <rect x="506" y="259" width="9" height="17" fill="#38BDF8"/>
  </g>
  <g transform="translate(604 124)">
    <rect width="176" height="128" rx="12" fill="#111827" stroke="#2A3344"/>
    <text x="18" y="32" fill="#94A3B8" font-family="ui-monospace, SFMono-Regular, Menlo, Consolas, monospace" font-size="12">SYSTEM HUD</text>
    <path d="M18 52H158" stroke="#2A3344"/>
    <text x="18" y="78" fill="#22C55E" font-family="ui-monospace, SFMono-Regular, Menlo, Consolas, monospace" font-size="13">ship: online</text>
    <text x="18" y="102" fill="#38BDF8" font-family="ui-monospace, SFMono-Regular, Menlo, Consolas, monospace" font-size="13">ops: monitored</text>
    <text x="18" y="126" fill="#F97316" font-family="ui-monospace, SFMono-Regular, Menlo, Consolas, monospace" font-size="13">security: minded</text>
  </g>
  <path d="M76 304H818" stroke="#38BDF8" opacity="0.7" stroke-dasharray="8 10"/>
</svg>
